<?xml version="1.0" standalone="no"?>
<!DOCTYPE svg PUBLIC "-//W3C//DTD SVG 20010904//EN"
 "http://www.w3.org/TR/2001/REC-SVG-20010904/DTD/svg10.dtd">
<svg version="1.0" xmlns="http://www.w3.org/2000/svg"
 width="501.000000pt" height="501.000000pt" viewBox="0 0 501.000000 501.000000"
 preserveAspectRatio="xMidYMid meet">
<metadata>
Created by potrace 1.13, written by Peter Selinger 2001-2015
</metadata>
<g transform="translate(0.000000,501.000000) scale(0.100000,-0.100000)"
fill="#000000" stroke="none">
<path d="M2360 5003 c-983 -68 -1819 -675 -2178 -1578 -321 -809 -196 -1728
329 -2425 399 -530 973 -869 1644 -971 165 -26 481 -31 635 -11 487 63 922
246 1289 542 130 105 331 312 423 437 264 355 428 758 489 1203 17 123 17 487
0 610 -39 283 -119 548 -241 795 -128 261 -265 453 -468 658 -104 106 -280
257 -298 257 -6 0 -4 -105 3 -260 l13 -259 71 -88 c190 -237 327 -535 381
-831 25 -140 30 -428 9 -557 -44 -278 -151 -541 -309 -765 -86 -122 -280 -316
-402 -402 -241 -170 -499 -276 -800 -330 -101 -18 -489 -18 -590 0 -429 77
-788 260 -1072 548 -293 297 -465 640 -524 1044 -20 141 -15 419 11 550 123
626 544 1120 1145 1343 79 29 184 58 295 82 17 4 344 379 353 406 3 8 -102 10
-208 2z"/>
<path d="M3222 4764 c-13 -8 -84 -93 -159 -187 -75 -95 -225 -280 -333 -412
-509 -622 -659 -816 -706 -909 -60 -122 -84 -211 -91 -331 -11 -198 52 -361
192 -500 94 -94 175 -144 305 -187 89 -30 104 -32 240 -32 138 0 149 1 226 31
232 88 390 283 450 556 19 82 20 287 4 797 -5 168 -14 492 -21 720 -10 368
-13 418 -28 440 -22 31 -49 36 -79 14z"/>
</g>
</svg>
